<svg xmlns="http://www.w3.org/2000/svg" viewBox="0 0 100 100">
  <rect width="100" height="100" rx="20" fill="#0d1117"/>
  <path d="M50 10C27.909 10 10 27.909 10 50c0 17.705 11.479 32.651 27.35 37.949 2 .367 2.75-.85 2.75-1.9 0-.95-.05-4.1-.05-7.45-10.05 1.85-12.65-2.45-13.45-4.7-.45-1.15-2.4-4.7-4.1-5.65-1.4-.75-3.4-2.6-.05-2.65 3.15-.05 5.4 2.9 6.15 4.1 3.6 6.05 9.35 4.35 11.65 3.3.35-2.6 1.4-4.35 2.55-5.35-8.9-1-18.2-4.45-18.2-19.75 0-4.35 1.55-7.95 4.1-10.75-.4-1-.8-5.1.4-10.6 0 0 3.35-1.05 11 4.1 3.2-.9 6.6-1.35 10-1.35s6.8.45 10 1.35c7.65-5.2 11-4.1 11-4.1 1.2 5.5.8 9.6.4 10.6 2.55 2.8 4.1 6.35 4.1 10.75 0 15.35-9.35 18.75-18.25 19.75 1.45 1.25 2.7 3.65 2.7 7.4 0 5.35-.05 9.65-.05 11 0 1.05.75 2.3 2.75 1.9C78.521 82.651 90 67.705 90 50c0-22.091-17.909-40-40-40z" fill="#c9d1d9"/>
  <path d="M35 75l15-20 15 20" stroke="#238636" stroke-width="4" fill="none" stroke-linecap="round" stroke-linejoin="round"/>
  <path d="M50 55v20" stroke="#238636" stroke-width="4" stroke-linecap="round"/>
</svg>
